<?xml version="1.0" encoding="utf-8"?>
<!-- Generator: Adobe Illustrator 19.0.0, SVG Export Plug-In . SVG Version: 6.00 Build 0)  -->
<svg version="1.1" id="Layer_1" xmlns:v="https://vecta.io/nano"
	 xmlns="http://www.w3.org/2000/svg" xmlns:xlink="http://www.w3.org/1999/xlink" x="0px" y="0px" viewBox="-212 307 186 179"
	 style="enable-background:new -212 307 186 179;" xml:space="preserve">
<style type="text/css">
	.st0{fill:#F0B90B;}
	.st1{fill:#FFFDFA;}
	.st2{opacity:0.1;fill:none;stroke:#191326;stroke-width:3;enable-background:new    ;}
	.st3{fill:#0033AD;}
	.st4{opacity:0.2;fill:none;stroke:#191326;stroke-width:2.837;enable-background:new    ;}
</style>
<circle class="st0" cx="-168.2" cy="350.8" r="43.8"/>
<path class="st1" d="M-184.6,350.8l-6.7,6.7l-6.7-6.7l6.7-6.7L-184.6,350.8z M-168.2,334.4l11.5,11.5l6.7-6.7l-11.5-11.5l-6.7-6.7
	l-18.2,18.2l6.7,6.7L-168.2,334.4z M-145.2,344l-6.7,6.7l6.7,6.7l6.7-6.7L-145.2,344z M-168.2,367.1l-11.5-11.5l-6.7,6.7l18.2,18.2
	l18.3-18.3l-6.7-6.7L-168.2,367.1z M-168.2,357.5l6.7-6.7l-6.7-6.7l-6.7,6.7L-168.2,357.5z"/>
<circle class="st2" cx="-168.2" cy="350.8" r="41.5"/>
<circle class="st3" cx="-92.4" cy="419" r="66.4"/>
<path class="st1" d="M-93.5,379.1c1.9-1,4.2,1.3,3.2,3.2c-0.6,1.5-2.8,2-3.9,0.8C-95.4,382-95.1,379.7-93.5,379.1z M-113.9,381.3
	c1.1-0.5,2.6,0.6,2.5,1.8c0.1,1.4-1.5,2.4-2.7,1.7C-115.7,384.3-115.5,381.7-113.9,381.3L-113.9,381.3z M-72.1,384.9
	c-1.8-0.2-2.1-3.1-0.4-3.6c1.4-0.6,2.6,0.6,2.8,1.9C-70,384.2-70.9,385.2-72.1,384.9L-72.1,384.9z M-109.3,390
	c1.9-1.2,4.7,0.6,4.4,2.8c-0.1,2.3-3.1,3.6-4.8,2C-111.3,393.7-111.1,390.9-109.3,390z M-79.8,391.3c0.9-2.2,4.3-2.3,5.3-0.1
	c1,1.7-0.2,3.8-1.9,4.3C-78.8,395.9-80.9,393.4-79.8,391.3L-79.8,391.3z M-96,395.3c0-1.9,1.7-3.3,3.5-3.4c1.2,0.3,2.5,0.8,3,2
	c1,1.7,0.1,4-1.6,4.7c-0.8,0.4-1.7,0.3-2.6,0.2C-95,398.2-96.1,396.9-96,395.3z M-126.3,398.1c1.8-1.1,4.1,0.9,3.5,2.8
	c-0.4,1.7-2.6,2.3-3.9,1.3C-128.1,401.2-127.9,398.8-126.3,398.1z M-61.1,398.1c1.5-1.1,3.9,0.2,3.8,2c0.1,1.7-2,3-3.5,2.1
	C-62.5,401.6-62.6,399.1-61.1,398.1z M-87.4,401.6c2.5-0.9,5.4,0.2,6.8,2.4c1.9,2.7,0.9,6.8-2,8.3c-3,1.8-7.3,0.3-8.4-3.1
	C-92.3,406.2-90.5,402.5-87.4,401.6L-87.4,401.6z M-101.9,401.8c2.7-1.3,6.4-0.2,7.7,2.6c1.5,2.7,0.4,6.5-2.4,7.9
	c-2.8,1.6-6.7,0.4-8-2.5C-106.1,407-104.8,403.2-101.9,401.8z M-116.4,406.8c0.2-1.8,1.9-2.9,3.6-3c1.8,0.2,3.3,1.6,3.4,3.4
	c-0.1,1.8-1.5,3.6-3.4,3.6C-114.9,411-116.8,408.9-116.4,406.8z M-73.6,404.2c2.2-1.3,5.2,0.6,5.1,3.1c0.1,2.6-3.2,4.5-5.3,2.9
	C-76.1,408.9-75.9,405.3-73.6,404.2z M-107.8,413.5c2.5-0.7,5.4,0.5,6.7,2.8c1.4,2.3,0.8,5.6-1.3,7.3c-2.7,2.5-7.7,1.5-9.2-1.9
	C-113.2,418.5-111.2,414.3-107.8,413.5z M-80.3,413.4c2.5-0.7,5.3,0.3,6.7,2.5c1.8,2.5,0.9,6.4-1.7,8c-2.7,1.9-7,0.9-8.5-2.1
	C-85.6,418.8-83.8,414.4-80.3,413.4L-80.3,413.4z M-124.1,416.4c2.2-0.8,4.6,1.6,3.7,3.8c-0.5,2-3.3,2.7-4.8,1.3
	C-126.8,420-126.2,417-124.1,416.4z M-64.8,419.5c-0.1-1.8,1.3-3.4,3.1-3.5c1.5,0.3,2.9,1.4,2.8,3.1c0.1,2.2-2.5,3.6-4.3,2.6
	C-64,421.3-64.4,420.4-64.8,419.5z M-134.9,417.4c1.3-0.6,2.9,0.6,2.7,2c-0.1,1.7-2.5,2.3-3.4,0.9
	C-136.4,419.4-135.9,417.9-134.9,417.4L-134.9,417.4z M-51.8,417.4c0.9-0.6,2.4-0.2,2.8,0.9c0.6,1.2-0.5,2.8-1.9,2.6
	C-52.8,421.1-53.4,418.2-51.8,417.4z M-100.6,425.4c3.5-0.9,7.2,2,7.2,5.6c0.2,3.6-3.4,6.8-7,6c-2.7-0.4-4.9-3.1-4.8-5.9
	C-105.2,428.4-103.2,425.9-100.6,425.4L-100.6,425.4z M-86.9,425.4c3.5-1,7.4,2,7.3,5.6c0.2,3.6-3.4,6.6-6.9,5.9
	c-3.3-0.4-5.7-4-4.8-7.2C-90.8,427.6-89,425.9-86.9,425.4L-86.9,425.4z M-113.4,427.5c2.4-0.4,4.7,2.3,3.7,4.6
	c-0.7,2.5-4.3,3.1-5.9,1.1C-117.4,431.3-116,427.8-113.4,427.5z M-73.2,427.7c2.2-0.9,4.8,1,4.7,3.3c0.1,2.6-3.2,4.4-5.3,2.9
	C-76.2,432.5-75.8,428.5-73.2,427.7z M-61.9,438.9c-0.9-1.6,0.7-3.7,2.4-3.4c0.9,0,1.5,0.7,2,1.3c0.1,0.9,0.3,2-0.5,2.8
	C-58.9,440.9-61.3,440.5-61.9,438.9L-61.9,438.9z M-126.3,436c1.7-1.1,4,0.5,3.6,2.4c-0.2,1.7-2.3,2.7-3.7,1.7
	C-128,439.3-127.9,436.8-126.3,436L-126.3,436z M-93.9,439.5c2.2-0.9,4.9,0.9,4.7,3.3c0.1,2.6-3.2,4.4-5.3,2.9
	C-96.9,444.3-96.5,440.4-93.9,439.5z M-108.9,443c1.8-1,4.3,0.7,4.1,2.8c0.1,1.7-1.6,3.1-3.3,2.9c-1.4,0-2.3-1.3-2.7-2.4
	C-110.7,445-110.2,443.5-108.9,443z M-78.5,443.1c1.9-1.1,4.6,0.5,4.4,2.7c0,2.3-3,3.8-4.7,2.3C-80.5,446.9-80.3,444-78.5,443.1
	L-78.5,443.1z M-73.2,456.1c-0.8-1.3,0.1-2.8,1.5-3.1c1.1,0.2,2.3,1,2,2.3C-69.8,457.1-72.3,457.6-73.2,456.1z M-115.2,455.1
	c0.3-1,1.1-2,2.3-1.8c1.7,0.1,2.2,2.7,0.7,3.5C-113.5,457.8-115.1,456.5-115.2,455.1z M-94.9,456.2c0.3-1.5,2.3-2.2,3.5-1.4
	c0.8,0.4,1.1,1.3,1.3,2.1l-0.3,1.3c-0.5,0.6-1.2,1.2-2,1.2C-94.1,459.5-95.6,457.7-94.9,456.2L-94.9,456.2z"/>
<circle class="st4" cx="-92.4" cy="419" r="64.3"/>
</svg>
