<?xml version="1.0" encoding="utf-8"?>
<!-- Generator: Adobe Illustrator 19.0.0, SVG Export Plug-In . SVG Version: 6.00 Build 0)  -->
<svg version="1.1" id="Layer_1" xmlns:v="https://vecta.io/nano"
	 xmlns="http://www.w3.org/2000/svg" xmlns:xlink="http://www.w3.org/1999/xlink" x="0px" y="0px" viewBox="-193 349 96 96"
	 style="enable-background:new -193 349 96 96;" xml:space="preserve">
<style type="text/css">
	.st0{fill:#F0B90B;}
	.st1{fill:#FFFDFA;}
	.st2{opacity:0.1;}
	.st3{fill:#191326;}
	.st4{fill:#F4B731;}
	.st5{opacity:0.2;}
</style>
<circle class="st0" cx="-169.6" cy="372.1" r="23.1"/>
<path class="st1" d="M-179.5,366.2l9.8-9.8l3.9,3.9l-9.8,9.8C-175.5,370.1-179.5,366.2-179.5,366.2z M-179.5,378l15.7-15.7l3.9,3.9
	l-15.7,15.7C-175.5,381.9-179.5,378-179.5,378z M-157.9,368.1l-15.7,15.7l3.9,3.9l15.7-15.7L-157.9,368.1L-157.9,368.1z
	 M-185.3,372.1l3.9-3.9l3.9,3.9l-3.9,3.9L-185.3,372.1z"/>
<g class="st2">
	<path class="st3" d="M-169.6,392.8c11.4,0,20.7-9.3,20.7-20.7c0-11.4-9.3-20.7-20.7-20.7c-11.4,0-20.7,9.3-20.7,20.7
		C-190.3,383.5-181.1,392.8-169.6,392.8z M-169.6,395.2c12.7,0,23.1-10.3,23.1-23.1s-10.3-23.1-23.1-23.1
		c-12.7,0-23.1,10.3-23.1,23.1S-182.4,395.2-169.6,395.2z"/>
</g>
<circle class="st4" cx="-132.4" cy="409.2" r="35.8"/>
<g>
	<path class="st1" d="M-146.7,390.5h14.9c9.1,0,16,4.9,18.5,12.1h4.7v4.3h-3.7c0.1,0.7,0.1,1.4,0.1,2.1v0.1c0,0.8,0,1.6-0.1,2.4h3.7
		v4.3h-4.7c-2.6,7.1-9.5,12-18.4,12h-14.9v-12h-5.2v-4.3h5.2V407h-5.2v-4.3h5.2L-146.7,390.5L-146.7,390.5z"/>
	<path class="st4" d="M-142.5,415.9v8.1h10.8c6.6,0,11.6-3.2,13.9-8.1H-142.5z"/>
	<path class="st4" d="M-116.6,411.5h-25.9V407h25.9c0.1,0.7,0.1,1.5,0.1,2.2v0.1C-116.4,410-116.5,410.8-116.6,411.5L-116.6,411.5z"
		/>
	<path class="st4" d="M-131.7,394.4c6.7,0,11.6,3.3,13.9,8.2h-24.7v-8.2C-142.5,394.4-131.7,394.4-131.7,394.4z"/>
</g>
<g class="st5">
	<path class="st3" d="M-132.4,442.7c18.5,0,33.5-15,33.5-33.5s-15-33.5-33.5-33.5s-33.5,15-33.5,33.5S-150.9,442.7-132.4,442.7z
		 M-132.4,445c19.8,0,35.8-16,35.8-35.8s-16-35.8-35.8-35.8s-35.8,16-35.8,35.8S-152.2,445-132.4,445z"/>
</g>
</svg>
